<mxfile host="app.diagrams.net" modified="2022-03-30T05:50:51.195Z" agent="5.0 (Windows NT 10.0; Win64; x64) AppleWebKit/537.36 (KHTML, like Gecko) Chrome/98.0.4758.109 Safari/537.36 OPR/84.0.4316.42" etag="aQAF_ZqU4bu-ppODUE8K" version="16.6.7" type="github">
  <diagram id="e5wToZ6Jj2soGeOCWYj3" name="Page-1">
    <mxGraphModel dx="3245" dy="930" grid="1" gridSize="10" guides="1" tooltips="1" connect="1" arrows="1" fold="1" page="1" pageScale="1" pageWidth="827" pageHeight="1169" math="0" shadow="0">
      <root>
        <mxCell id="0" />
        <mxCell id="1" parent="0" />
        <mxCell id="EQGqR3AfJu_5h7u1whTw-27" value="" style="rounded=0;whiteSpace=wrap;html=1;" vertex="1" parent="1">
          <mxGeometry x="40" y="40" width="1480" height="360" as="geometry" />
        </mxCell>
        <mxCell id="EQGqR3AfJu_5h7u1whTw-4" style="edgeStyle=orthogonalEdgeStyle;rounded=0;orthogonalLoop=1;jettySize=auto;html=1;" edge="1" parent="1" source="77KCPv3B4IZZ5Z66STRk-1" target="EQGqR3AfJu_5h7u1whTw-1">
          <mxGeometry relative="1" as="geometry" />
        </mxCell>
        <mxCell id="77KCPv3B4IZZ5Z66STRk-1" value="Pedido Registrado" style="swimlane;html=1;fontStyle=1;align=center;verticalAlign=middle;childLayout=stackLayout;horizontal=1;startSize=30;horizontalStack=0;resizeParent=0;resizeLast=1;container=0;fontColor=#000000;collapsible=0;rounded=1;arcSize=30;strokeColor=#ff0000;fillColor=#ffffc0;swimlaneFillColor=#ffffc0;dropTarget=0;" parent="1" vertex="1">
          <mxGeometry x="310" y="265" width="210" height="70" as="geometry" />
        </mxCell>
        <mxCell id="77KCPv3B4IZZ5Z66STRk-2" value="Save&lt;br&gt;código: 1" style="text;html=1;strokeColor=none;fillColor=none;align=center;verticalAlign=middle;spacingLeft=4;spacingRight=4;whiteSpace=wrap;overflow=hidden;rotatable=0;fontColor=#000000;" parent="77KCPv3B4IZZ5Z66STRk-1" vertex="1">
          <mxGeometry y="30" width="210" height="40" as="geometry" />
        </mxCell>
        <mxCell id="P6Ppndu3YUtAiaM16hDx-5" style="edgeStyle=none;rounded=1;orthogonalLoop=1;jettySize=auto;html=1;strokeColor=#FF1919;" parent="1" source="77KCPv3B4IZZ5Z66STRk-44" target="P6Ppndu3YUtAiaM16hDx-4" edge="1">
          <mxGeometry relative="1" as="geometry" />
        </mxCell>
        <mxCell id="77KCPv3B4IZZ5Z66STRk-44" value="ALERTA_CALIFICADA" style="swimlane;html=1;fontStyle=1;align=center;verticalAlign=middle;childLayout=stackLayout;horizontal=1;startSize=30;horizontalStack=0;resizeParent=0;resizeLast=1;container=0;fontColor=#000000;collapsible=0;rounded=1;arcSize=30;strokeColor=#ff0000;fillColor=#ffffc0;swimlaneFillColor=#ffffc0;dropTarget=0;" parent="1" vertex="1">
          <mxGeometry x="1115" y="860" width="190" height="60" as="geometry" />
        </mxCell>
        <mxCell id="77KCPv3B4IZZ5Z66STRk-45" value="Respuesta satisfactoria Lynx" style="text;html=1;strokeColor=none;fillColor=none;align=center;verticalAlign=middle;spacingLeft=4;spacingRight=4;whiteSpace=wrap;overflow=hidden;rotatable=0;fontColor=#000000;" parent="77KCPv3B4IZZ5Z66STRk-44" vertex="1">
          <mxGeometry y="30" width="190" height="30" as="geometry" />
        </mxCell>
        <mxCell id="P6Ppndu3YUtAiaM16hDx-4" value="" style="ellipse;html=1;shape=endState;fillColor=#000000;strokeColor=#ff0000;" parent="1" vertex="1">
          <mxGeometry x="1195" y="960" width="30" height="30" as="geometry" />
        </mxCell>
        <mxCell id="P6Ppndu3YUtAiaM16hDx-6" value="" style="ellipse;html=1;shape=startState;fillColor=#000000;strokeColor=#ff0000;" parent="1" vertex="1">
          <mxGeometry x="90" y="285" width="30" height="30" as="geometry" />
        </mxCell>
        <mxCell id="P6Ppndu3YUtAiaM16hDx-7" value="Registró pedido" style="edgeStyle=orthogonalEdgeStyle;html=1;verticalAlign=bottom;endArrow=open;endSize=8;strokeColor=#ff0000;" parent="1" source="P6Ppndu3YUtAiaM16hDx-6" target="77KCPv3B4IZZ5Z66STRk-1" edge="1">
          <mxGeometry relative="1" as="geometry">
            <mxPoint x="355" y="245" as="targetPoint" />
          </mxGeometry>
        </mxCell>
        <mxCell id="dr77cnrp0Dk-WK7C_Hbr-3" value="***No deben ingresar alertas fuera&#xa;de los segmentos permitidos.*** &#xa;(No se hara validacion de segmentos)&#xa;" style="text;strokeColor=none;fillColor=none;fontSize=12;fontStyle=1;verticalAlign=middle;align=center;spacing=0;labelPosition=center;verticalLabelPosition=middle;" parent="1" vertex="1">
          <mxGeometry x="-60" y="760" width="290" height="40" as="geometry" />
        </mxCell>
        <mxCell id="V9uZnK_i6f8zGeLkOwlv-1" value="&lt;font style=&quot;font-size: 12px&quot;&gt;&lt;br&gt;&lt;/font&gt;" style="text;strokeColor=none;fillColor=none;html=1;fontSize=24;fontStyle=1;verticalAlign=middle;align=center;" parent="1" vertex="1">
          <mxGeometry x="140" y="530" width="290" height="30" as="geometry" />
        </mxCell>
        <mxCell id="fyI6EhqjK9DCoRPXTvLA-15" value="" style="group" parent="1" vertex="1" connectable="0">
          <mxGeometry x="-130" y="790" width="365" height="190" as="geometry" />
        </mxCell>
        <mxCell id="fyI6EhqjK9DCoRPXTvLA-3" value="" style="rounded=0;whiteSpace=wrap;html=1;" parent="fyI6EhqjK9DCoRPXTvLA-15" vertex="1">
          <mxGeometry y="30" width="365" height="160" as="geometry" />
        </mxCell>
        <mxCell id="fyI6EhqjK9DCoRPXTvLA-4" value="" style="swimlane;html=1;fontStyle=1;align=center;verticalAlign=middle;childLayout=stackLayout;horizontal=1;startSize=10;horizontalStack=0;resizeParent=0;resizeLast=1;container=0;fontColor=#ffffff;collapsible=0;rounded=1;arcSize=30;strokeColor=#006EAF;fillColor=#1ba1e2;swimlaneFillColor=#ffffc0;dropTarget=0;" parent="fyI6EhqjK9DCoRPXTvLA-15" vertex="1">
          <mxGeometry x="15" y="40" width="110" height="30" as="geometry" />
        </mxCell>
        <mxCell id="fyI6EhqjK9DCoRPXTvLA-6" value="" style="swimlane;html=1;fontStyle=1;align=center;verticalAlign=middle;childLayout=stackLayout;horizontal=1;startSize=10;horizontalStack=0;resizeParent=0;resizeLast=1;container=0;fontColor=#000000;collapsible=0;rounded=1;arcSize=30;strokeColor=#ff0000;fillColor=#ffffc0;swimlaneFillColor=#ffffc0;dropTarget=0;" parent="fyI6EhqjK9DCoRPXTvLA-15" vertex="1">
          <mxGeometry x="15" y="80" width="110" height="30" as="geometry" />
        </mxCell>
        <mxCell id="fyI6EhqjK9DCoRPXTvLA-8" value="&lt;font style=&quot;font-size: 12px&quot;&gt;Estados Semi-Finales (flujo Normal)&lt;br&gt;&lt;/font&gt;" style="text;strokeColor=none;fillColor=none;html=1;fontSize=24;fontStyle=1;verticalAlign=middle;align=left;fontColor=#999999;" parent="fyI6EhqjK9DCoRPXTvLA-15" vertex="1">
          <mxGeometry x="135" y="40" width="220" height="30" as="geometry" />
        </mxCell>
        <mxCell id="fyI6EhqjK9DCoRPXTvLA-9" value="&lt;font style=&quot;font-size: 12px&quot;&gt;Estados en transición&lt;br&gt;&lt;/font&gt;" style="text;strokeColor=none;fillColor=none;html=1;fontSize=24;fontStyle=1;verticalAlign=middle;align=left;spacing=2;strokeWidth=1;horizontal=1;fontColor=#999999;" parent="fyI6EhqjK9DCoRPXTvLA-15" vertex="1">
          <mxGeometry x="135" y="80" width="220" height="30" as="geometry" />
        </mxCell>
        <mxCell id="fyI6EhqjK9DCoRPXTvLA-10" value="&lt;font style=&quot;font-size: 12px&quot;&gt;LEYENDA&lt;br&gt;&lt;/font&gt;" style="text;strokeColor=none;fillColor=none;html=1;fontSize=24;fontStyle=5;verticalAlign=middle;align=left;" parent="fyI6EhqjK9DCoRPXTvLA-15" vertex="1">
          <mxGeometry width="220" height="30" as="geometry" />
        </mxCell>
        <mxCell id="fyI6EhqjK9DCoRPXTvLA-11" value="" style="ellipse;html=1;shape=startState;fillColor=#000000;strokeColor=#ff0000;" parent="fyI6EhqjK9DCoRPXTvLA-15" vertex="1">
          <mxGeometry x="55" y="117" width="30" height="30" as="geometry" />
        </mxCell>
        <mxCell id="fyI6EhqjK9DCoRPXTvLA-12" value="&lt;font style=&quot;font-size: 12px&quot;&gt;Inicio de flujo&lt;br&gt;&lt;/font&gt;" style="text;strokeColor=none;fillColor=none;html=1;fontSize=24;fontStyle=1;verticalAlign=middle;align=left;spacing=2;strokeWidth=1;horizontal=1;fontColor=#999999;" parent="fyI6EhqjK9DCoRPXTvLA-15" vertex="1">
          <mxGeometry x="135" y="117" width="220" height="30" as="geometry" />
        </mxCell>
        <mxCell id="fyI6EhqjK9DCoRPXTvLA-13" value="" style="ellipse;html=1;shape=endState;fillColor=#000000;strokeColor=#ff0000;" parent="fyI6EhqjK9DCoRPXTvLA-15" vertex="1">
          <mxGeometry x="55" y="151" width="30" height="30" as="geometry" />
        </mxCell>
        <mxCell id="fyI6EhqjK9DCoRPXTvLA-14" value="&lt;font style=&quot;font-size: 12px&quot;&gt;Final de flujo&lt;br&gt;&lt;/font&gt;" style="text;strokeColor=none;fillColor=none;html=1;fontSize=24;fontStyle=1;verticalAlign=middle;align=left;spacing=2;strokeWidth=1;horizontal=1;fontColor=#999999;" parent="fyI6EhqjK9DCoRPXTvLA-15" vertex="1">
          <mxGeometry x="135" y="151" width="220" height="30" as="geometry" />
        </mxCell>
        <mxCell id="fLqlD2cx_nLfpuTeQDXq-2" value="" style="group" parent="1" vertex="1" connectable="0">
          <mxGeometry x="1170" y="1630" width="205" height="117" as="geometry" />
        </mxCell>
        <mxCell id="cCC_wAo5Gk7yveZZET_A-15" value="1. Modifica el objetoRedis:&lt;br&gt;- BloqueoTemporal: Y/N&lt;br&gt;2. Envía email de bloqueo &lt;br&gt;(temporal) a digital ops&lt;br&gt;3. Registra el envio en &lt;br&gt;Tracking Lynx" style="html=1;align=center;verticalAlign=top;rounded=1;absoluteArcSize=1;arcSize=20;dashed=1;fillColor=#FFFFC0;" parent="fLqlD2cx_nLfpuTeQDXq-2" vertex="1">
          <mxGeometry x="5" y="22" width="200" height="95" as="geometry" />
        </mxCell>
        <mxCell id="cCC_wAo5Gk7yveZZET_A-16" value="Si cumple regla de bloqueo temporal" style="html=1;points=[];perimeter=orthogonalPerimeter;strokeColor=none;align=left;verticalAlign=top;spacingLeft=10;fillColor=#FF0000;" parent="fLqlD2cx_nLfpuTeQDXq-2" vertex="1">
          <mxGeometry width="5" height="80" as="geometry" />
        </mxCell>
        <mxCell id="EQGqR3AfJu_5h7u1whTw-1" value="Especificaciones Técnicas" style="swimlane;html=1;fontStyle=1;align=center;verticalAlign=middle;childLayout=stackLayout;horizontal=1;startSize=30;horizontalStack=0;resizeParent=0;resizeLast=1;container=0;fontColor=#000000;collapsible=0;rounded=1;arcSize=30;strokeColor=#ff0000;fillColor=#ffffc0;swimlaneFillColor=#ffffc0;dropTarget=0;" vertex="1" parent="1">
          <mxGeometry x="610" y="265" width="210" height="70" as="geometry" />
        </mxCell>
        <mxCell id="EQGqR3AfJu_5h7u1whTw-2" value="Save&lt;br&gt;código: 10010" style="text;html=1;strokeColor=none;fillColor=none;align=center;verticalAlign=middle;spacingLeft=4;spacingRight=4;whiteSpace=wrap;overflow=hidden;rotatable=0;fontColor=#000000;" vertex="1" parent="EQGqR3AfJu_5h7u1whTw-1">
          <mxGeometry y="30" width="210" height="40" as="geometry" />
        </mxCell>
        <mxCell id="EQGqR3AfJu_5h7u1whTw-5" value="BANDEJA DE PENDIENTES" style="rounded=0;whiteSpace=wrap;html=1;labelPosition=center;verticalLabelPosition=top;align=center;verticalAlign=bottom;" vertex="1" parent="1">
          <mxGeometry x="580" y="80" width="860" height="110" as="geometry" />
        </mxCell>
        <mxCell id="EQGqR3AfJu_5h7u1whTw-9" style="rounded=0;orthogonalLoop=1;jettySize=auto;html=1;entryX=0.5;entryY=0;entryDx=0;entryDy=0;" edge="1" parent="1" source="EQGqR3AfJu_5h7u1whTw-6" target="EQGqR3AfJu_5h7u1whTw-1">
          <mxGeometry relative="1" as="geometry" />
        </mxCell>
        <mxCell id="EQGqR3AfJu_5h7u1whTw-6" value="Gestionar Pedido - Esp. Técnica" style="swimlane;html=1;fontStyle=1;align=center;verticalAlign=middle;childLayout=stackLayout;horizontal=1;startSize=60;horizontalStack=0;resizeParent=0;resizeLast=1;container=0;fontColor=#000000;collapsible=0;rounded=1;arcSize=30;strokeColor=#ff0000;fillColor=#ffffc0;swimlaneFillColor=#ffffc0;dropTarget=0;" vertex="1" parent="1">
          <mxGeometry x="610" y="105" width="210" height="60" as="geometry" />
        </mxCell>
        <mxCell id="EQGqR3AfJu_5h7u1whTw-17" style="edgeStyle=none;rounded=0;orthogonalLoop=1;jettySize=auto;html=1;entryX=0.5;entryY=0;entryDx=0;entryDy=0;" edge="1" parent="1" source="EQGqR3AfJu_5h7u1whTw-10" target="EQGqR3AfJu_5h7u1whTw-12">
          <mxGeometry relative="1" as="geometry" />
        </mxCell>
        <mxCell id="EQGqR3AfJu_5h7u1whTw-10" value="Gestionar Pedido - Verif. Compra" style="swimlane;html=1;fontStyle=1;align=center;verticalAlign=middle;childLayout=stackLayout;horizontal=1;startSize=60;horizontalStack=0;resizeParent=0;resizeLast=1;container=0;fontColor=#000000;collapsible=0;rounded=1;arcSize=30;strokeColor=#ff0000;fillColor=#ffffc0;swimlaneFillColor=#ffffc0;dropTarget=0;" vertex="1" parent="1">
          <mxGeometry x="860" y="105" width="250" height="60" as="geometry" />
        </mxCell>
        <mxCell id="EQGqR3AfJu_5h7u1whTw-11" style="edgeStyle=none;rounded=0;orthogonalLoop=1;jettySize=auto;html=1;entryX=0;entryY=1;entryDx=0;entryDy=0;" edge="1" parent="1" source="EQGqR3AfJu_5h7u1whTw-1" target="EQGqR3AfJu_5h7u1whTw-10">
          <mxGeometry relative="1" as="geometry" />
        </mxCell>
        <mxCell id="EQGqR3AfJu_5h7u1whTw-21" style="edgeStyle=none;rounded=0;orthogonalLoop=1;jettySize=auto;html=1;entryX=0;entryY=1;entryDx=0;entryDy=0;" edge="1" parent="1" source="EQGqR3AfJu_5h7u1whTw-12" target="EQGqR3AfJu_5h7u1whTw-18">
          <mxGeometry relative="1" as="geometry" />
        </mxCell>
        <mxCell id="EQGqR3AfJu_5h7u1whTw-12" value="Verificación de Cumplimiento" style="swimlane;html=1;fontStyle=1;align=center;verticalAlign=middle;childLayout=stackLayout;horizontal=1;startSize=30;horizontalStack=0;resizeParent=0;resizeLast=1;container=0;fontColor=#000000;collapsible=0;rounded=1;arcSize=30;strokeColor=#ff0000;fillColor=#ffffc0;swimlaneFillColor=#ffffc0;dropTarget=0;" vertex="1" parent="1">
          <mxGeometry x="880" y="265" width="210" height="70" as="geometry" />
        </mxCell>
        <mxCell id="EQGqR3AfJu_5h7u1whTw-13" value="Save&lt;br&gt;código: 10011" style="text;html=1;strokeColor=none;fillColor=none;align=center;verticalAlign=middle;spacingLeft=4;spacingRight=4;whiteSpace=wrap;overflow=hidden;rotatable=0;fontColor=#000000;" vertex="1" parent="EQGqR3AfJu_5h7u1whTw-12">
          <mxGeometry y="30" width="210" height="40" as="geometry" />
        </mxCell>
        <mxCell id="EQGqR3AfJu_5h7u1whTw-16" style="edgeStyle=none;rounded=0;orthogonalLoop=1;jettySize=auto;html=1;entryX=0;entryY=1;entryDx=0;entryDy=0;" edge="1" parent="1" source="77KCPv3B4IZZ5Z66STRk-1" target="EQGqR3AfJu_5h7u1whTw-6">
          <mxGeometry relative="1" as="geometry" />
        </mxCell>
        <mxCell id="EQGqR3AfJu_5h7u1whTw-22" style="edgeStyle=none;rounded=0;orthogonalLoop=1;jettySize=auto;html=1;entryX=0.5;entryY=0;entryDx=0;entryDy=0;" edge="1" parent="1" source="EQGqR3AfJu_5h7u1whTw-18" target="EQGqR3AfJu_5h7u1whTw-19">
          <mxGeometry relative="1" as="geometry" />
        </mxCell>
        <mxCell id="EQGqR3AfJu_5h7u1whTw-18" value="Gestionar Pedido - Elección Ganador" style="swimlane;html=1;fontStyle=1;align=center;verticalAlign=middle;childLayout=stackLayout;horizontal=1;startSize=60;horizontalStack=0;resizeParent=0;resizeLast=1;container=0;fontColor=#000000;collapsible=0;rounded=1;arcSize=30;strokeColor=#ff0000;fillColor=#ffffc0;swimlaneFillColor=#ffffc0;dropTarget=0;" vertex="1" parent="1">
          <mxGeometry x="1155" y="105" width="250" height="60" as="geometry" />
        </mxCell>
        <mxCell id="EQGqR3AfJu_5h7u1whTw-19" value="Cuadro Comparativo" style="swimlane;html=1;fontStyle=1;align=center;verticalAlign=middle;childLayout=stackLayout;horizontal=1;startSize=30;horizontalStack=0;resizeParent=0;resizeLast=1;container=0;fontColor=#000000;collapsible=0;rounded=1;arcSize=30;strokeColor=#ff0000;fillColor=#ffffc0;swimlaneFillColor=#ffffc0;dropTarget=0;" vertex="1" parent="1">
          <mxGeometry x="1175" y="265" width="210" height="70" as="geometry" />
        </mxCell>
        <mxCell id="EQGqR3AfJu_5h7u1whTw-20" value="Save&lt;br&gt;código: 2" style="text;html=1;strokeColor=none;fillColor=none;align=center;verticalAlign=middle;spacingLeft=4;spacingRight=4;whiteSpace=wrap;overflow=hidden;rotatable=0;fontColor=#000000;" vertex="1" parent="EQGqR3AfJu_5h7u1whTw-19">
          <mxGeometry y="30" width="210" height="40" as="geometry" />
        </mxCell>
        <mxCell id="EQGqR3AfJu_5h7u1whTw-23" value="ALERTA_CON_BLOQUEO_PREVIO" style="swimlane;html=1;fontStyle=1;align=center;verticalAlign=middle;childLayout=stackLayout;horizontal=1;startSize=30;horizontalStack=0;resizeParent=0;resizeLast=1;container=0;fontColor=#ffffff;collapsible=0;rounded=1;arcSize=30;strokeColor=#006EAF;fillColor=#1ba1e2;swimlaneFillColor=#ffffc0;dropTarget=0;" vertex="1" parent="1">
          <mxGeometry x="870" y="860" width="220" height="70" as="geometry" />
        </mxCell>
        <mxCell id="EQGqR3AfJu_5h7u1whTw-24" value="Tarjeta esta bloqueada&lt;br&gt;CodLynx: 0081 [BFBP]" style="text;html=1;strokeColor=none;fillColor=none;align=center;verticalAlign=middle;spacingLeft=4;spacingRight=4;whiteSpace=wrap;overflow=hidden;rotatable=0;fontColor=#000000;" vertex="1" parent="EQGqR3AfJu_5h7u1whTw-23">
          <mxGeometry y="30" width="220" height="40" as="geometry" />
        </mxCell>
        <mxCell id="EQGqR3AfJu_5h7u1whTw-25" value="Alerta no tiene nro telefono&lt;br&gt;CodLynx: -0510 [BICC]" style="text;html=1;strokeColor=none;fillColor=none;align=center;verticalAlign=middle;spacingLeft=4;spacingRight=4;whiteSpace=wrap;overflow=hidden;rotatable=0;fontColor=#000000;" vertex="1" parent="EQGqR3AfJu_5h7u1whTw-23">
          <mxGeometry y="70" width="220" as="geometry" />
        </mxCell>
      </root>
    </mxGraphModel>
  </diagram>
</mxfile>
